<?xml version="1.0" encoding="UTF-8"?>
<!-- Generator: Adobe Illustrator 22.1.0, SVG Export Plug-In . SVG Version: 6.00 Build 0)  -->
<svg version="1.1" id="Ebene_1" xmlns="http://www.w3.org/2000/svg" xmlns:xlink="http://www.w3.org/1999/xlink" x="0px" y="0px" width="440px" height="80px" viewBox="0 0 440 80" enable-background="new 0 0 440 80" xml:space="preserve">
<path fill="#1D1D1B" d="M195.013,19.26c0-3.606-1.008-5.5-4.846-5.5h-2.735v11.058h2.735c0.723,0.028,1.447-0.059,2.143-0.256  c2.3-0.736,2.7-3.171,2.7-5.3L195.013,19.26z M192.95,19.26c0,1.2-0.048,3.172-1.216,3.894c-0.484,0.247-1.024,0.363-1.567,0.336  H189.3v-8.4h0.864c2.623,0,2.783,2.051,2.783,4.167L192.95,19.26z"/>
<path fill="#1D1D1B" d="M202.509,20.531V20.1c0-1.855-0.96-3.087-2.895-3.087c-2.272,0-3.264,1.424-3.264,3.583  c0,2.511,1.136,4.383,3.839,4.383c0.72,0.013,1.438-0.089,2.127-0.3v-1.237c-0.466,0.175-0.957,0.273-1.455,0.288  c-1.673-0.096-2.953-1.527-2.863-3.2L202.509,20.531z M200.829,19.46h-2.783c0.057-0.749,0.688-1.324,1.439-1.312  c0.679-0.062,1.28,0.439,1.342,1.118C200.833,19.331,200.833,19.395,200.829,19.46L200.829,19.46z"/>
<polygon fill="#1D1D1B" points="206.073,24.802 206.073,13.765 204.298,13.765 204.298,24.802 206.073,24.802 "/>
<path fill="#1D1D1B" d="M214.049,20.531V20.1c0-1.855-0.96-3.087-2.9-3.087c-2.271,0-3.263,1.424-3.263,3.583  c0,2.511,1.136,4.383,3.839,4.383c0.72,0.013,1.438-0.089,2.127-0.3v-1.237c-0.466,0.175-0.957,0.273-1.455,0.288  c-1.673-0.096-2.953-1.527-2.863-3.2L214.049,20.531z M212.369,19.46h-2.782c0.057-0.749,0.688-1.325,1.439-1.312  c0.679-0.061,1.28,0.44,1.341,1.119C212.373,19.331,212.373,19.396,212.369,19.46z"/>
<path fill="#1D1D1B" d="M221.6,25.33v-8.142h-1.7V18.1h-0.032c-0.391-0.712-1.156-1.135-1.967-1.088  c-2.016,0-2.607,2.16-2.607,3.807c0,1.744,0.431,3.983,2.607,3.983c0.823-0.005,1.577-0.459,1.967-1.184h0.032V24.8  c0,1.359-0.464,2.223-1.967,2.223c-0.83-0.011-1.641-0.243-2.351-0.672V28.1c0.779,0.196,1.579,0.297,2.383,0.3  c2.127,0,3.631-0.72,3.631-3.071L221.6,25.33z M219.9,20.819c0,0.832-0.288,2.607-1.407,2.607c-1.232,0-1.312-1.711-1.312-2.607  c0-0.88,0.112-2.431,1.312-2.431C219.644,18.388,219.9,19.939,219.9,20.819z"/>
<path fill="#1D1D1B" d="M229.322,24.8v-5.421c0-1.759-1.152-2.367-2.767-2.367c-1.584,0-2.9,0.672-2.9,2.416h1.727  c-0.071-0.574,0.338-1.097,0.912-1.168c0.085-0.01,0.171-0.01,0.256,0c0.88,0,1.072,0.64,1.072,1.391V20.4  c-1.728,0.048-4.255,0.288-4.255,2.575c0.161,1.26,1.312,2.151,2.572,1.991c0.678-0.086,1.283-0.47,1.65-1.047h0.033v0.88  L229.322,24.8z M227.627,21.441c0,0.976-0.4,2.287-1.584,2.287c-0.458,0.062-0.879-0.259-0.941-0.716  c-0.009-0.065-0.01-0.13-0.003-0.195C225.099,21.665,226.779,21.441,227.627,21.441z"/>
<path fill="#1D1D1B" d="M236.179,18.42v-1.232h-2.255v-2.879l-1.775,1.072v1.807h-1.488v1.232h1.488v4.463  c0,1.583,0.783,2.1,2.335,2.1c0.488-0.003,0.974-0.046,1.455-0.128V23.6c-0.266,0.074-0.539,0.117-0.815,0.128  c-1.1,0-1.2-0.816-1.2-1.711v-3.6L236.179,18.42z"/>
<path fill="#1D1D1B" d="M239.213,15.525v-1.76h-1.775v1.76H239.213z M239.213,24.802v-7.614h-1.775V24.8L239.213,24.802z"/>
<path fill="#1D1D1B" d="M247.749,21c0-2.207-0.944-3.983-3.359-3.983s-3.359,1.776-3.359,3.983s0.944,3.983,3.359,3.983  S247.749,23.2,247.749,21z M245.861,21c0,1.04-0.048,2.735-1.471,2.735s-1.472-1.7-1.472-2.735s0.048-2.735,1.472-2.735  S245.861,19.965,245.861,21z"/>
<path fill="#1D1D1B" d="M255.618,24.8v-5.277c0-1.311-0.608-2.511-2.064-2.511c-1.018-0.009-1.927,0.636-2.255,1.6h-0.032v-1.424  h-1.775V24.8h1.775v-3.293c0-1.024,0.512-2.831,1.792-2.831c0.182-0.019,0.365,0.032,0.511,0.144c0.3,0.288,0.272,1.263,0.272,1.631  V24.8H255.618z"/>
<path fill="#1D1D1B" d="M268.372,24.8V13.765H266.6V18.1h-0.032c-0.381-0.688-1.113-1.108-1.9-1.088c-2.112,0-2.608,2.3-2.608,3.983  c0,1.759,0.384,3.983,2.608,3.983c0.806-0.049,1.527-0.516,1.9-1.232h0.032V24.8H268.372z M266.6,21  c0,0.832-0.208,2.607-1.343,2.607c-1.232,0-1.312-1.727-1.312-2.607c0-0.928,0.032-2.607,1.312-2.607  C266.488,18.393,266.6,20.12,266.6,21z"/>
<path fill="#1D1D1B" d="M276.21,20.531V20.1c0-1.855-0.96-3.087-2.895-3.087c-2.272,0-3.263,1.424-3.263,3.583  c0,2.511,1.135,4.383,3.838,4.383c0.721,0.013,1.439-0.089,2.128-0.3v-1.237c-0.466,0.175-0.958,0.273-1.456,0.288  c-1.673-0.096-2.953-1.527-2.863-3.2L276.21,20.531z M274.53,19.46h-2.783c0.057-0.75,0.688-1.325,1.44-1.312  c0.679-0.061,1.28,0.44,1.341,1.119C274.534,19.331,274.534,19.396,274.53,19.46z"/>
<path fill="#1D1D1B" d="M282.158,18.868v-1.856c-1.076-0.056-2.066,0.584-2.458,1.588h-0.032v-1.412h-1.776V24.8h1.776v-3.341  c0-1.792,0.671-2.591,2.5-2.591H282.158z"/>
<path fill="#1D1D1B" d="M295.95,19.26c0-3.606-1.008-5.5-4.846-5.5h-2.735v11.058h2.731c0.723,0.027,1.447-0.059,2.143-0.256  c2.3-0.736,2.7-3.171,2.7-5.3L295.95,19.26z M293.887,19.26c0,1.2-0.048,3.172-1.216,3.894c-0.484,0.247-1.024,0.362-1.567,0.336  h-0.864v-8.4h0.864c2.623,0,2.783,2.051,2.783,4.167V19.26z"/>
<path fill="#1D1D1B" d="M303.446,20.531V20.1c0-1.855-0.96-3.087-2.9-3.087c-2.271,0-3.263,1.424-3.263,3.583  c0,2.511,1.136,4.383,3.839,4.383c0.72,0.013,1.438-0.089,2.127-0.3v-1.237c-0.466,0.175-0.957,0.273-1.455,0.288  c-1.673-0.096-2.953-1.527-2.863-3.2L303.446,20.531z M301.766,19.46h-2.783c0.057-0.749,0.688-1.324,1.439-1.312  c0.679-0.062,1.28,0.439,1.342,1.118C301.77,19.331,301.77,19.395,301.766,19.46z"/>
<path fill="#1D1D1B" d="M311.265,24.8v-7.612h-1.776v3.3c0,1.024-0.512,2.831-1.791,2.831c-0.183,0.019-0.366-0.032-0.512-0.144  c-0.3-0.287-0.272-1.263-0.272-1.631v-4.356h-1.775v5.279c0,1.311,0.608,2.511,2.063,2.511c1.015-0.001,1.919-0.642,2.255-1.6h0.032  V24.8H311.265z"/>
<path fill="#1D1D1B" d="M318.186,18.42v-1.232h-2.256v-2.879l-1.775,1.072v1.807h-1.488v1.232h1.488v4.463  c0,1.583,0.784,2.1,2.335,2.1c0.488-0.003,0.975-0.046,1.456-0.128V23.6c-0.266,0.074-0.54,0.117-0.816,0.128  c-1.1,0-1.2-0.816-1.2-1.711v-3.6L318.186,18.42z"/>
<path fill="#1D1D1B" d="M323.762,22.69c0-2.175-3.343-2.687-3.343-3.694c0-0.512,0.784-0.7,1.184-0.7  c0.6,0.032,1.183,0.207,1.7,0.512V17.3c-0.56-0.175-1.142-0.272-1.728-0.288c-1.423,0-2.735,0.656-2.735,2.24  c0,2.015,3.279,2.767,3.279,3.662c0,0.608-0.864,0.688-1.312,0.688c-0.67-0.017-1.33-0.175-1.935-0.464v1.536  c0.652,0.203,1.332,0.305,2.015,0.3c1.488,0,2.879-0.592,2.879-2.288L323.762,22.69z"/>
<path fill="#1D1D1B" d="M331.163,19.8c0-1.871-1.04-2.783-2.9-2.783c-2.287,0-3.487,1.44-3.487,3.647  c0,2.655,1.36,4.319,4.079,4.319c0.754-0.005,1.504-0.124,2.223-0.352v-1.093c-0.413,0.135-0.846,0.2-1.28,0.192  c-1.698,0.042-3.109-1.301-3.15-3c-0.003-0.131,0.002-0.261,0.015-0.391c0-0.911,0.336-2.079,1.456-2.079  c0.928,0,1.151,0.752,1.151,1.535L331.163,19.8z"/>
<path fill="#1D1D1B" d="M338.5,24.8v-5.277c0-1.311-0.607-2.511-2.063-2.511c-1.018-0.009-1.927,0.636-2.255,1.6h-0.032v-4.847  h-1.776V24.8h1.776v-3.293c0-1.024,0.512-2.831,1.791-2.831c0.183-0.019,0.366,0.032,0.512,0.144c0.3,0.288,0.272,1.263,0.272,1.631  V24.8H338.5z"/>
<path fill="#1D1D1B" d="M346.363,20.531V20.1c0-1.855-0.96-3.087-2.895-3.087c-2.271,0-3.263,1.424-3.263,3.583  c0,2.511,1.135,4.383,3.839,4.383c0.72,0.013,1.438-0.089,2.127-0.3v-1.237c-0.466,0.175-0.958,0.273-1.456,0.288  c-1.673-0.096-2.953-1.527-2.863-3.2L346.363,20.531z M344.683,19.46H341.9c0.057-0.749,0.688-1.324,1.439-1.312  c0.679-0.062,1.28,0.439,1.342,1.118C344.686,19.331,344.687,19.395,344.683,19.46L344.683,19.46z"/>
<path fill="#1D1D1B" d="M354.2,24.8v-5.277c0-1.311-0.607-2.511-2.063-2.511c-1.018-0.01-1.928,0.636-2.255,1.6h-0.032v-1.424  h-1.776V24.8h1.776v-3.293c0-1.024,0.512-2.831,1.791-2.831c0.183-0.019,0.366,0.032,0.512,0.144c0.3,0.288,0.272,1.263,0.272,1.631  V24.8H354.2z"/>
<polygon fill="#1D1D1B" points="374.151,13.765 372.439,13.765 370.888,22.067 370.856,22.067 368.009,13.765 366.505,13.765   363.69,22.067 363.658,22.067 362.075,13.765 360.363,13.765 362.49,24.802 364.442,24.802 367.241,16.645 367.273,16.645   370.12,24.802 372.071,24.802 374.151,13.765 "/>
<path fill="#1D1D1B" d="M377.458,15.525v-1.76h-1.776v1.76H377.458z M377.458,24.802v-7.614h-1.776V24.8L377.458,24.802z"/>
<path fill="#1D1D1B" d="M383.978,18.868v-1.856c-1.077-0.058-2.07,0.58-2.463,1.584h-0.032v-1.408h-1.776V24.8h1.776v-3.341  c0-1.792,0.672-2.591,2.5-2.591H383.978z"/>
<path fill="#1D1D1B" d="M390.1,18.42v-1.232h-2.255v-2.879l-1.776,1.072v1.807h-1.487v1.232h1.487v4.463  c0,1.583,0.784,2.1,2.335,2.1c0.488-0.003,0.975-0.046,1.456-0.128V23.6c-0.266,0.074-0.54,0.117-0.816,0.128  c-1.1,0-1.2-0.816-1.2-1.711v-3.6L390.1,18.42z"/>
<path fill="#1D1D1B" d="M395.673,22.69c0-2.175-3.342-2.687-3.342-3.694c0-0.512,0.784-0.7,1.184-0.7  c0.598,0.033,1.179,0.208,1.695,0.512V17.3c-0.56-0.175-1.142-0.272-1.728-0.288c-1.423,0-2.735,0.656-2.735,2.24  c0,2.015,3.279,2.767,3.279,3.662c0,0.608-0.864,0.688-1.311,0.688c-0.671-0.017-1.33-0.175-1.936-0.464v1.536  c0.652,0.203,1.333,0.305,2.016,0.3c1.487,0,2.878-0.592,2.878-2.288L395.673,22.69z"/>
<path fill="#1D1D1B" d="M403.074,19.8c0-1.871-1.04-2.783-2.9-2.783c-2.287,0-3.487,1.44-3.487,3.647  c0,2.655,1.36,4.319,4.079,4.319c0.754-0.005,1.504-0.124,2.223-0.352v-1.093c-0.413,0.135-0.845,0.2-1.279,0.192  c-1.698,0.042-3.109-1.301-3.15-3c-0.003-0.131,0.002-0.261,0.015-0.391c0-0.911,0.336-2.079,1.455-2.079  c0.928,0,1.152,0.752,1.152,1.535L403.074,19.8z"/>
<path fill="#1D1D1B" d="M410.41,24.8v-5.277c0-1.311-0.608-2.511-2.064-2.511c-1.018-0.009-1.927,0.636-2.255,1.6h-0.032v-4.847  h-1.775V24.8h1.775v-3.293c0-1.024,0.512-2.831,1.792-2.831c0.182-0.019,0.365,0.032,0.511,0.144c0.3,0.288,0.272,1.263,0.272,1.631  V24.8H410.41z"/>
<path fill="#1D1D1B" d="M418.146,24.8v-5.421c0-1.759-1.152-2.367-2.767-2.367c-1.584,0-2.9,0.672-2.9,2.416h1.727  c-0.071-0.574,0.338-1.097,0.912-1.168c0.085-0.01,0.171-0.01,0.256,0c0.88,0,1.072,0.64,1.072,1.391V20.4  c-1.728,0.048-4.255,0.288-4.255,2.575c0.168,1.262,1.327,2.149,2.589,1.981c0.671-0.089,1.268-0.468,1.634-1.037h0.032v0.88  L418.146,24.8z M416.451,21.441c0,0.976-0.4,2.287-1.584,2.287c-0.457,0.062-0.878-0.258-0.94-0.715  c-0.009-0.065-0.01-0.131-0.003-0.196C413.924,21.665,415.603,21.441,416.451,21.441z"/>
<path fill="#1D1D1B" d="M425.8,15.109v-1.36c-0.584-0.117-1.179-0.17-1.775-0.16c-1.712,0-3.119,0.656-3.119,2.56v1.039h-1.392  v1.232h1.392v6.38h1.775v-6.38h2.24v-1.232h-2.24V16.66c0-1.167,0.5-1.823,1.728-1.823C424.885,14.847,425.355,14.939,425.8,15.109z  "/>
<path fill="#1D1D1B" d="M430.916,18.42v-1.232h-2.255v-2.879l-1.775,1.072v1.807H425.4v1.232h1.488v4.463  c0,1.583,0.783,2.1,2.335,2.1c0.488-0.003,0.974-0.046,1.455-0.128V23.6c-0.266,0.074-0.539,0.117-0.815,0.128  c-1.1,0-1.2-0.816-1.2-1.711v-3.6L430.916,18.42z"/>
<path fill="#1D1D1B" d="M189.191,31.24v-1.759h-1.775v1.759H189.191z M189.191,40.517V32.9h-1.775v7.613L189.191,40.517z"/>
<path fill="#1D1D1B" d="M197.6,40.517v-5.278c0-1.311-0.608-2.511-2.064-2.511c-1.018-0.009-1.927,0.636-2.255,1.6h-0.032V32.9  h-1.775v7.613h1.775v-3.29c0-1.024,0.512-2.832,1.792-2.832c0.182-0.019,0.365,0.032,0.511,0.144c0.3,0.288,0.272,1.264,0.272,1.632  v4.35H197.6z"/>
<path fill="#1D1D1B" d="M213.184,40.517l-3.758-11.036h-2.256l-3.77,11.036h1.952l0.96-2.991h3.966l0.96,2.991H213.184z   M209.825,36.1h-3.07l1.519-4.847h0.032L209.825,36.1L209.825,36.1z"/>
<path fill="#1D1D1B" d="M220.394,40.517v-5.278c0-1.311-0.608-2.511-2.063-2.511c-1.018-0.01-1.928,0.635-2.255,1.6h-0.033V32.9  h-1.775v7.613h1.775v-3.29c0-1.024,0.512-2.832,1.792-2.832c0.183-0.019,0.366,0.032,0.512,0.144c0.3,0.288,0.272,1.264,0.272,1.632  v4.35H220.394z"/>
<path fill="#1D1D1B" d="M228.4,41.045V32.9h-1.695v0.911h-0.032c-0.392-0.711-1.157-1.134-1.968-1.087  c-2.015,0-2.607,2.159-2.607,3.807c0,1.743,0.432,3.982,2.607,3.982c0.823-0.005,1.577-0.459,1.968-1.183h0.032v1.183  c0,1.36-0.464,2.224-1.968,2.224c-0.829-0.011-1.641-0.243-2.351-0.672v1.743c0.78,0.196,1.58,0.297,2.384,0.3  c2.127,0,3.63-0.72,3.63-3.071V41.045z M226.705,36.535c0,0.831-0.288,2.607-1.408,2.607c-1.232,0-1.311-1.711-1.311-2.607  c0-0.88,0.111-2.432,1.311-2.432C226.449,34.103,226.705,35.655,226.705,36.535z"/>
<path fill="#1D1D1B" d="M236.816,36.711c0-2.208-0.944-3.983-3.36-3.983S230.1,34.5,230.1,36.711s0.944,3.982,3.359,3.982  s3.36-1.775,3.36-3.982H236.816z M234.928,36.711c0,1.039-0.048,2.735-1.472,2.735s-1.471-1.7-1.471-2.735s0.048-2.736,1.471-2.736  S234.928,35.675,234.928,36.711z"/>
<polygon fill="#1D1D1B" points="240.414,40.517 240.414,29.481 238.639,29.481 238.639,40.517 240.414,40.517 "/>
<path fill="#1D1D1B" d="M248.262,40.517V35.1c0-1.759-1.152-2.367-2.768-2.367c-1.583,0-2.9,0.672-2.9,2.415h1.728  c-0.071-0.574,0.336-1.097,0.91-1.168c0.085-0.011,0.172-0.011,0.257,0c0.88,0,1.072,0.64,1.072,1.392v0.752  c-1.727,0.048-4.254,0.288-4.254,2.575c0.168,1.262,1.328,2.148,2.59,1.98c0.67-0.089,1.266-0.468,1.632-1.036h0.032v0.879  L248.262,40.517z M246.562,37.158c0,0.976-0.4,2.288-1.583,2.288c-0.458,0.062-0.879-0.259-0.941-0.716  c-0.009-0.065-0.01-0.131-0.003-0.196C244.035,37.382,245.715,37.158,246.562,37.158z"/>
<path fill="#1D1D1B" d="M194.6,51.415c0-3.183-0.975-5.487-4.526-5.487h-2.479v11.037h2.079c0.778,0.028,1.555-0.073,2.3-0.3  c2.239-0.768,2.623-3.151,2.623-5.246L194.6,51.415z M193.241,51.431c0,1.455-0.144,3.486-1.68,4.19  c-0.596,0.227-1.233,0.33-1.871,0.3h-0.848v-8.953h0.7c0.612-0.026,1.224,0.055,1.808,0.24c1.727,0.608,1.887,2.671,1.887,4.223  H193.241z"/>
<path fill="#1D1D1B" d="M201.81,52.438V52.07c0-1.679-0.88-2.9-2.656-2.9c-2.239,0-2.974,1.744-2.974,3.727  c0,2.463,1.071,4.239,3.71,4.239c0.589,0.014,1.177-0.061,1.744-0.224v-0.9c-0.489,0.133-0.993,0.202-1.5,0.208  c-1.871,0-2.7-1.679-2.7-3.343v-0.448L201.81,52.438z M200.562,51.527h-3.055c0.082-0.821,0.775-1.444,1.6-1.44  c0.777-0.026,1.428,0.583,1.455,1.36C200.562,51.474,200.563,51.5,200.562,51.527L200.562,51.527z"/>
<polygon fill="#1D1D1B" points="204.971,56.965 204.971,45.928 203.883,45.928 203.883,56.965 204.971,56.965 "/>
<path fill="#1D1D1B" d="M212.757,52.438V52.07c0-1.679-0.88-2.9-2.656-2.9c-2.239,0-2.975,1.744-2.975,3.727  c0,2.463,1.072,4.239,3.711,4.239c0.589,0.014,1.177-0.061,1.744-0.224v-0.9c-0.489,0.133-0.993,0.202-1.5,0.208  c-1.871,0-2.7-1.679-2.7-3.343v-0.448L212.757,52.438z M211.509,51.527h-3.055c0.082-0.821,0.775-1.444,1.6-1.44  c0.778-0.026,1.429,0.583,1.456,1.361c0.001,0.026,0.001,0.053,0,0.079H211.509z"/>
<path fill="#1D1D1B" d="M219.884,56.981v-7.63H218.8V50.6h-0.032c-0.261-0.87-1.075-1.455-1.983-1.424  c-2.079,0-2.607,2.384-2.607,4.031c0,1.711,0.48,3.759,2.575,3.759c0.924,0.026,1.75-0.571,2.015-1.456h0.032v1.344  c0,1.631-0.543,2.527-2.3,2.527c-0.659-0.004-1.309-0.157-1.9-0.448v1.1c0.677,0.158,1.368,0.244,2.063,0.256  c2.192,0,3.231-1.152,3.231-3.311L219.884,56.981z M218.8,53.014c0,1.088-0.431,3.039-1.823,3.039c-1.36,0-1.551-1.823-1.551-2.831  c0-0.992,0.191-3.135,1.583-3.135C218.369,50.087,218.8,51.958,218.8,53.014z"/>
<path fill="#1D1D1B" d="M227.285,56.965v-5.343c0-1.7-0.831-2.447-2.559-2.447c-1.359,0-2.7,0.592-2.735,2.128h1.216  c0.112-0.912,0.656-1.216,1.551-1.216c1.52,0,1.44,1.216,1.44,2.351v0.16c-0.249,0.04-0.5,0.056-0.752,0.048  c-1.407,0-3.631,0.624-3.631,2.368c-0.116,1.055,0.645,2.004,1.701,2.12c0.115,0.013,0.232,0.015,0.347,0.007  c0.931,0.037,1.815-0.411,2.335-1.184h0.032v1.008H227.285z M226.2,53.51c0.035,0.528-0.064,1.056-0.288,1.536  c-0.315,0.704-1.006,1.164-1.776,1.183c-0.575,0.017-1.055-0.436-1.072-1.011c-0.001-0.03,0-0.059,0.001-0.089  c0-1.215,1.519-1.615,2.5-1.615L226.2,53.51z"/>
<path fill="#1D1D1B" d="M234.993,51.671c0.113-1.274-0.828-2.398-2.101-2.511c-0.168-0.015-0.338-0.011-0.506,0.011  c-2.335,0-3.1,1.728-3.1,3.807c0,1.92,0.736,3.311,2.223,3.871l-0.352,1.6c0.576,0,1.472-0.08,1.472,0.768  c-0.009,0.415-0.352,0.745-0.768,0.736c0,0,0,0,0,0c-0.341-0.011-0.666-0.148-0.912-0.384v0.816  c0.317,0.141,0.661,0.212,1.008,0.208c0.76,0.099,1.457-0.436,1.556-1.196c0.006-0.044,0.009-0.088,0.011-0.132  c0.061-0.697-0.455-1.312-1.152-1.373c-0.064-0.006-0.128-0.006-0.191-0.002h-0.24l0.208-0.848c0.348,0.068,0.701,0.101,1.055,0.1  c0.536,0.012,1.07-0.058,1.584-0.208V56.07c-0.4,0.117-0.816,0.171-1.232,0.16c-2.159,0-3.023-1.519-3.023-3.487  c0-1.136,0.416-2.655,1.808-2.655c0.976,0,1.359,0.7,1.359,1.584L234.993,51.671z"/>
<path fill="#1D1D1B" d="M241.632,46.312h-0.672c0,0.24,0,0.752-0.336,0.752c-0.448,0-1.248-0.864-1.887-0.864  c-0.816,0-0.912,1.216-0.912,1.824h0.672c0-0.192,0.064-0.784,0.336-0.784c0.32,0,1.151,0.816,1.871,0.816  C241.584,48.056,241.632,46.956,241.632,46.312z M242.16,56.965v-5.343c0-1.7-0.832-2.447-2.56-2.447  c-1.359,0-2.7,0.592-2.735,2.128h1.216c0.112-0.912,0.656-1.216,1.551-1.216c1.52,0,1.44,1.216,1.44,2.351v0.16  c-0.249,0.04-0.5,0.056-0.752,0.048c-1.407,0-3.631,0.624-3.631,2.368c-0.116,1.055,0.645,2.004,1.701,2.12  c0.115,0.013,0.232,0.015,0.347,0.007c0.931,0.037,1.815-0.411,2.335-1.184h0.032v1.008H242.16z M241.072,53.51  c0.035,0.528-0.064,1.056-0.288,1.536c-0.314,0.703-1.005,1.163-1.775,1.183c-0.575,0.017-1.056-0.435-1.073-1.01  c-0.001-0.03-0.001-0.06,0.001-0.09c0-1.215,1.519-1.615,2.495-1.615L241.072,53.51z"/>
<path fill="#1D1D1B" d="M250.077,53.174c0-2.063-0.767-4-3.134-4s-3.1,1.952-3.1,4s0.752,3.967,3.1,3.967  S250.077,55.241,250.077,53.174z M248.83,53.158c0,1.232-0.288,3.071-1.887,3.071s-1.856-1.855-1.856-3.071s0.272-3.071,1.856-3.071  S248.83,51.926,248.83,53.158z"/>
<path fill="#1D1D1B" d="M261.36,56.965V45.928h-1.088V50.6h-0.032c-0.253-0.883-1.083-1.474-2-1.424c-2.08,0-2.592,2.4-2.592,4.047  c0,1.776,0.416,3.919,2.607,3.919c0.915,0.005,1.723-0.595,1.984-1.472h0.032v1.3L261.36,56.965z M260.272,53.19  c0,1.056-0.432,3.039-1.791,3.039c-1.408,0-1.584-1.743-1.584-2.8s0.128-3.343,1.616-3.343c1.439,0,1.759,2.031,1.759,3.1V53.19z"/>
<path fill="#1D1D1B" d="M268.761,56.965v-5.343c0-1.7-0.832-2.447-2.559-2.447c-1.36,0-2.7,0.592-2.736,2.128h1.216  c0.112-0.912,0.656-1.216,1.552-1.216c1.519,0,1.439,1.216,1.439,2.351v0.16c-0.249,0.04-0.5,0.056-0.752,0.048  c-1.407,0-3.63,0.624-3.63,2.368c-0.116,1.055,0.646,2.004,1.701,2.12c0.115,0.013,0.231,0.015,0.346,0.007  c0.931,0.037,1.815-0.411,2.335-1.184h0.032v1.008H268.761z M267.673,53.51c0.035,0.528-0.064,1.056-0.288,1.536  c-0.314,0.703-1.005,1.163-1.775,1.183c-0.575,0.017-1.056-0.435-1.073-1.01c-0.001-0.03-0.001-0.06,0.001-0.09  c0-1.215,1.52-1.615,2.5-1.615L267.673,53.51z"/>
<polygon fill="#1D1D1B" points="281.005,56.965 281.005,55.925 276.766,55.925 276.766,51.703 280.669,51.703 280.669,50.663   276.766,50.663 276.766,46.968 280.861,46.968 280.861,45.928 275.519,45.928 275.519,56.965 281.005,56.965 "/>
<path fill="#1D1D1B" d="M288.009,51.671c0.113-1.274-0.828-2.398-2.101-2.511c-0.168-0.015-0.338-0.011-0.506,0.011  c-2.336,0-3.1,1.728-3.1,3.807c0,2.543,1.3,4.159,3.918,4.159c0.536,0.012,1.07-0.058,1.584-0.208v-0.864  c-0.4,0.117-0.816,0.171-1.232,0.16c-2.159,0-3.023-1.519-3.023-3.487c0-1.136,0.416-2.655,1.808-2.655  c0.975,0,1.359,0.7,1.359,1.584L288.009,51.671z"/>
<path fill="#1D1D1B" d="M295.347,53.174c0-2.063-0.768-4-3.135-4c-2.351,0-3.1,1.952-3.1,4s0.752,3.967,3.1,3.967  C294.579,57.141,295.347,55.241,295.347,53.174z M294.099,53.158c0,1.232-0.288,3.071-1.887,3.071s-1.856-1.855-1.856-3.071  s0.272-3.071,1.856-3.071S294.099,51.926,294.099,53.158z"/>
<path fill="#1D1D1B" d="M302.8,56.965v-5.438c0-1.2-0.608-2.352-1.951-2.352c-1.161-0.024-2.17,0.795-2.384,1.936h-0.032v-1.76  h-1.087v7.614h1.087V53.83c0-1.2,0.64-3.567,2.16-3.567c1.247,0,1.119,1.616,1.119,2.479v4.223H302.8z"/>
<path fill="#1D1D1B" d="M311.033,53.174c0-2.063-0.768-4-3.135-4c-2.351,0-3.1,1.952-3.1,4s0.752,3.967,3.1,3.967  C310.265,57.141,311.033,55.241,311.033,53.174z M309.785,53.158c0,1.232-0.287,3.071-1.887,3.071c-1.583,0-1.855-1.855-1.855-3.071  s0.272-3.071,1.855-3.071S309.785,51.926,309.785,53.158z"/>
<path fill="#1D1D1B" d="M322.321,56.965v-5.438c0-1.2-0.608-2.352-1.951-2.352c-1.027,0.037-1.906,0.748-2.159,1.744h-0.033  c0.01-0.958-0.758-1.743-1.716-1.754c-0.068-0.001-0.136,0.003-0.203,0.01c-1.248,0-1.823,0.848-2.127,1.936H314.1v-1.76h-1.088  v7.614h1.088V53.83c0-1.056,0.512-3.567,1.9-3.567c1.248,0,1.12,1.616,1.12,2.479v4.223h1.088V53.83c0-1.056,0.5-3.567,1.9-3.567  c1.248,0,1.119,1.616,1.119,2.479v4.223H322.321z"/>
<path fill="#1D1D1B" d="M326.236,47.368v-1.44H324.8v1.44H326.236z M326.06,56.968v-7.617h-1.087v7.614L326.06,56.968z"/>
<path fill="#1D1D1B" d="M333.591,56.965v-5.343c0-1.7-0.832-2.447-2.56-2.447c-1.359,0-2.7,0.592-2.735,2.128h1.216  c0.112-0.912,0.655-1.216,1.551-1.216c1.52,0,1.44,1.216,1.44,2.351v0.16c-0.249,0.04-0.5,0.056-0.752,0.048  c-1.408,0-3.631,0.624-3.631,2.368c-0.116,1.055,0.646,2.004,1.701,2.12c0.115,0.013,0.231,0.015,0.346,0.007  c0.931,0.037,1.816-0.411,2.336-1.184h0.031v1.008H333.591z M332.5,53.51c0.035,0.528-0.064,1.056-0.288,1.536  c-0.315,0.704-1.006,1.164-1.776,1.183c-0.575,0.017-1.055-0.436-1.072-1.011c-0.001-0.03,0-0.059,0.001-0.089  c0-1.215,1.519-1.615,2.5-1.615L332.5,53.51z"/>
<path fill="#1D1D1B" d="M347.738,56.965l-3.567-11.037h-1.519l-3.519,11.037h1.248l1.071-3.407h3.935l1.1,3.407H347.738z   M345.051,52.518h-3.263l1.616-5.454h0.032L345.051,52.518z"/>
<polygon fill="#1D1D1B" points="350.342,56.965 350.342,45.928 349.254,45.928 349.254,56.965 350.342,56.965 "/>
<path fill="#1D1D1B" d="M358.128,52.438V52.07c0-1.679-0.88-2.9-2.656-2.9c-2.239,0-2.974,1.744-2.974,3.727  c0,2.463,1.071,4.239,3.711,4.239c0.589,0.014,1.177-0.061,1.743-0.224v-0.9c-0.489,0.133-0.993,0.202-1.5,0.208  c-1.871,0-2.7-1.679-2.7-3.343v-0.448L358.128,52.438z M356.88,51.527h-3.055c0.082-0.821,0.775-1.444,1.6-1.44  c0.777-0.026,1.428,0.583,1.455,1.36C356.88,51.474,356.881,51.5,356.88,51.527z"/>
<path fill="#1D1D1B" d="M369.4,56.965v-5.438c0-1.2-0.608-2.352-1.951-2.352c-1.027,0.037-1.906,0.748-2.159,1.744h-0.032  c0.009-0.959-0.761-1.744-1.72-1.754c-0.067-0.001-0.133,0.003-0.2,0.01c-1.248,0-1.823,0.848-2.127,1.936h-0.032v-1.76h-1.088  v7.614h1.088V53.83c0-1.056,0.512-3.567,1.9-3.567c1.248,0,1.12,1.616,1.12,2.479v4.223h1.088V53.83c0-1.056,0.5-3.567,1.9-3.567  c1.247,0,1.12,1.616,1.12,2.479v4.223H369.4z"/>
<path fill="#1D1D1B" d="M376.288,46.312h-0.671c0,0.24,0,0.752-0.337,0.752c-0.447,0-1.247-0.864-1.887-0.864  c-0.815,0-0.912,1.216-0.912,1.824h0.672c0-0.192,0.064-0.784,0.336-0.784c0.32,0,1.152,0.816,1.872,0.816  C376.24,48.056,376.288,46.956,376.288,46.312L376.288,46.312z M376.816,56.965v-5.343c0-1.7-0.832-2.447-2.559-2.447  c-1.359,0-2.7,0.592-2.735,2.128h1.215c0.112-0.912,0.656-1.216,1.552-1.216c1.519,0,1.439,1.216,1.439,2.351v0.16  c-0.248,0.04-0.5,0.056-0.751,0.048c-1.408,0-3.631,0.624-3.631,2.368c-0.116,1.055,0.646,2.004,1.701,2.12  c0.115,0.013,0.231,0.015,0.346,0.007c0.931,0.037,1.815-0.411,2.335-1.184h0.032v1.008H376.816z M375.728,53.51  c0.035,0.528-0.064,1.056-0.287,1.536c-0.315,0.704-1.006,1.164-1.776,1.183c-0.575,0.017-1.056-0.435-1.073-1.01  c-0.001-0.03-0.001-0.06,0.001-0.09c0-1.215,1.52-1.615,2.5-1.615L375.728,53.51z"/>
<path fill="#1D1D1B" d="M192.63,68.154v-0.368c0-1.679-0.88-2.895-2.655-2.895c-2.24,0-2.975,1.743-2.975,3.727  c0,2.463,1.072,4.238,3.711,4.238c0.589,0.014,1.177-0.061,1.743-0.224v-0.9c-0.489,0.133-0.993,0.203-1.5,0.208  c-1.872,0-2.7-1.68-2.7-3.343v-0.448L192.63,68.154z M191.383,67.242h-3.056c0.083-0.82,0.776-1.443,1.6-1.439  c0.777-0.027,1.429,0.582,1.456,1.359C191.383,67.189,191.384,67.215,191.383,67.242z"/>
<path fill="#1D1D1B" d="M203.9,72.68v-5.438c0-1.2-0.608-2.351-1.951-2.351c-1.027,0.038-1.906,0.747-2.159,1.743h-0.032  c0.009-0.959-0.762-1.744-1.721-1.753c-0.066-0.001-0.133,0.003-0.199,0.01c-1.247,0-1.823,0.847-2.127,1.935h-0.032v-1.759h-1.088  v7.613h1.088v-3.135c0-1.055,0.512-3.567,1.9-3.567c1.248,0,1.12,1.616,1.12,2.48v4.222h1.088v-3.135c0-1.055,0.5-3.567,1.9-3.567  c1.248,0,1.12,1.616,1.12,2.48v4.222H203.9z"/>
<path fill="#1D1D1B" d="M218.062,72.68L214.5,61.644h-1.519l-3.524,11.036h1.248l1.071-3.406h3.935l1.1,3.406H218.062z   M215.375,68.234h-3.263l1.616-5.454h0.032L215.375,68.234z"/>
<path fill="#1D1D1B" d="M224.937,72.68v-5.438c0-1.2-0.608-2.351-1.952-2.351c-1.16-0.024-2.168,0.794-2.383,1.935h-0.032v-1.759  h-1.088v7.613h1.088v-3.135c0-1.2,0.64-3.567,2.16-3.567c1.247,0,1.119,1.616,1.119,2.48v4.222H224.937z"/>
<path fill="#1D1D1B" d="M232.63,72.7v-7.633h-1.088v1.247h-0.032c-0.261-0.869-1.076-1.454-1.983-1.423  c-2.079,0-2.607,2.383-2.607,4.031c0,1.711,0.48,3.758,2.575,3.758c0.923,0.026,1.749-0.57,2.015-1.455h0.032v1.343  c0,1.632-0.543,2.528-2.3,2.528c-0.659-0.004-1.309-0.157-1.9-0.448v1.1c0.677,0.157,1.368,0.243,2.063,0.255  c2.191,0,3.231-1.151,3.231-3.311L232.63,72.7z M231.542,68.734c0,1.087-0.431,3.039-1.823,3.039c-1.36,0-1.552-1.824-1.552-2.831  s0.192-3.135,1.584-3.135C231.111,65.807,231.542,67.678,231.542,68.734z"/>
<path fill="#1D1D1B" d="M240.863,68.89c0-2.064-0.768-4-3.135-4c-2.351,0-3.1,1.951-3.1,4s0.752,3.966,3.1,3.966  C240.095,72.856,240.863,70.956,240.863,68.89z M239.615,68.874c0,1.231-0.288,3.071-1.887,3.071c-1.583,0-1.856-1.856-1.856-3.071  s0.273-3.071,1.856-3.071S239.615,67.642,239.615,68.874z"/>
<polygon fill="#1D1D1B" points="244.042,72.68 244.042,61.644 242.954,61.644 242.954,72.68 244.042,72.68 "/>
<path fill="#1D1D1B" d="M251.571,72.68v-5.342c0-1.695-0.831-2.447-2.559-2.447c-1.359,0-2.7,0.592-2.735,2.127h1.216  c0.112-0.911,0.656-1.215,1.552-1.215c1.519,0,1.439,1.215,1.439,2.351v0.16c-0.249,0.04-0.5,0.056-0.752,0.048  c-1.407,0-3.63,0.623-3.63,2.367c-0.117,1.055,0.644,2.004,1.698,2.12c0.116,0.013,0.232,0.015,0.349,0.007  c0.931,0.037,1.814-0.411,2.335-1.183h0.032v1.007H251.571z M250.484,69.225c0.035,0.528-0.064,1.056-0.288,1.536  c-0.314,0.704-1.005,1.165-1.776,1.184c-0.575,0.017-1.055-0.436-1.072-1.011c-0.001-0.03,0-0.059,0.001-0.089  c0-1.216,1.519-1.616,2.5-1.616L250.484,69.225z"/>
<path fill="#D2DDEA" d="M79.818,0H0v80h79.818c4.803-12.82,7.224-26.41,7.144-40.1C87.015,25.515,84.662,11.722,79.818,0z"/>
<path fill="#004B88" d="M173,80H79.818c4.807-12.785,7.233-26.342,7.158-40c0.068-14.087-2.274-28.25-7.158-40H173V80z"/>
<path fill="#FFFFFF" d="M133.107,14.64c-0.001-0.727,0.587-1.317,1.314-1.318c0.002,0,0.005,0,0.007,0h2.649  c0.728-0.003,1.32,0.585,1.323,1.313c0,0.002,0,0.003,0,0.005v24.023c-0.002,0.729-0.594,1.319-1.323,1.318h-2.629  c-0.733,0.004-1.33-0.585-1.337-1.318v-9.894h-10.755l0.005,9.894c-0.002,0.729-0.593,1.319-1.322,1.318h-2.649  c-0.73,0.001-1.323-0.588-1.327-1.318V14.64c0.002-0.73,0.594-1.32,1.324-1.318c0.001,0,0.002,0,0.003,0h2.654  c0.728-0.004,1.323,0.583,1.327,1.311c0,0.002,0,0.005,0,0.007v9.66h10.74v-9.663L133.107,14.64z"/>
<path fill="#FFFFFF" d="M165.823,14.64c0.653-0.726,0.754-1.327-0.14-1.318l-3.918,0.024c-0.987-0.141-1.976,0.242-2.611,1.01  l-9.889,11.034V14.664c0.014-0.714-0.554-1.304-1.268-1.318c-0.009,0-0.018,0-0.026,0h-2.7c-0.729-0.002-1.321,0.588-1.323,1.317  c0,0,0,0.001,0,0.001v24.019c0.002,0.73,0.595,1.319,1.325,1.317c0.001,0,0.001,0,0.002,0h2.706c0.711-0.002,1.286-0.58,1.284-1.292  c0-0.008,0-0.017,0-0.025v-5.592l4.548-5.053l6.577,10.645c0.342,0.716,1.023,1.212,1.81,1.317h3.8c0.73,0,0.961-0.591,0.514-1.317  l-9.124-14.626C157.39,24.057,165.823,14.64,165.823,14.64z"/>
<path fill="#FFFFFF" d="M103.736,13.322c0.828-0.033,1.567,0.516,1.774,1.318l8.216,24.023c0.226,0.449,0.046,0.996-0.403,1.222  c-0.145,0.073-0.306,0.106-0.467,0.096h-2.629c-0.807-0.047-1.512-0.563-1.8-1.318l-1.756-5.413h-9.036l-1.745,5.413  c-0.29,0.754-0.994,1.269-1.8,1.318h-2.63c-0.501,0.033-0.934-0.347-0.966-0.848c-0.011-0.162,0.023-0.325,0.096-0.47l8.218-24.023  c0.207-0.802,0.946-1.351,1.774-1.318L103.736,13.322z M98.606,28.754h6.039l-3-9.307l-3.034,9.307L98.606,28.754z"/>
<path fill="#1D1D1B" d="M26.243,65.467c0,0-0.678,5.048,0.03,6.73s29.68-0.228,30.34-2.964c0.4-1.24,0.033-4.822,0.033-4.822  l-30.4,1.056L26.243,65.467z"/>
<path fill="#6F6F6E" d="M26.243,65.467c0.169,0.469,28.989,2.555,30.206,0c1.394-2.928-4-3.187-4-3.187l-9.266,0.052l-8.742-0.241  c0,0-7.158,0.355-8.2,3.376H26.243z"/>
<path fill="#1D1D1B" d="M57.683,38.353c0.249-0.156,0.483-0.334,0.7-0.531c0.527-0.966-0.263-1.816-0.966-4.217  c-1.552-6.648-7.555-14.028-6.633-15.646c6.035,4.243,6.3-0.77,4.817-1.486c-0.586-0.282,0.665-0.37,1.213-0.564  c0.491-0.042-1.153-0.879-1.508-2.351c-0.324-1.019,0.22-1.947-0.241-2.653c-0.521-0.659-1.108-1.264-1.752-1.805l-0.12-0.6  L52.53,8.62l-0.3-0.9l-0.785,0.361L51.2,7.047l-1.025,0.241c-8.927-0.95-5.9,8.284-6.572,9.887  C16.416,31.344,24.977,72.4,45.778,61.609l-0.061-1.267C54.7,54.863,57.474,45.391,58.981,42.2c1.009-1.983,0.079-3.706-1.3-3.843  L57.683,38.353z M47.926,17.641c0.7,0.235,4.807,11.305,5.327,12.285s-0.1,1.021-0.361,0.453s-4.966-9.592-4.966-9.592  S47.569,17.72,47.926,17.641z M54.76,40.628c-2.169,4.341-11.86,23.61-17.66,12.088c-4.907-12.062,6.552-27.451,7.708-27.4  s9.13,13.475,10.429,13.505c0.354,0.008,0.663,0.011,0.951-0.008c-0.616,0.482-1.108,1.105-1.433,1.817L54.76,40.628z"/>
</svg>